<?xml version="1.0" encoding="UTF-8" standalone="no"?><!DOCTYPE svg PUBLIC "-//W3C//DTD SVG 1.1//EN" "http://www.w3.org/Graphics/SVG/1.1/DTD/svg11.dtd"><svg width="100%" height="100%" viewBox="0 0 50 50" version="1.1" xmlns="http://www.w3.org/2000/svg" xmlns:xlink="http://www.w3.org/1999/xlink" xml:space="preserve" xmlns:serif="http://www.serif.com/" style="fill-rule:evenodd;clip-rule:evenodd;stroke-linejoin:round;stroke-miterlimit:2;"><g id="Background"><path d="M41.209,22.789c2.616,2.645 1.094,3.221 -1.542,5.879c-5.283,5.328 -8.607,9.484 -10.22,7.886c-2.064,-2.044 6.742,-8.671 6.946,-9.115c0.667,-1.452 -0.262,-1.325 -1.837,-1.313c-26.64,0.197 -26.814,0.023 -27.198,-0.533c-1.454,-2.105 1.818,-1.769 23.142,-1.768c0.873,0 5.694,0.233 5.988,-0.33c0.081,-0.154 0.28,-0.535 -1.129,-1.861c-3.119,-2.934 -7.517,-6.585 -5.906,-8.181c1.621,-1.606 5.043,2.697 8.22,5.874c1.775,1.775 1.788,1.702 3.536,3.462Z" style="fill:#fff;fill-opacity:0.93;"/></g></svg>