<?xml version="1.0" encoding="UTF-8" standalone="no"?><!DOCTYPE svg PUBLIC "-//W3C//DTD SVG 1.1//EN" "http://www.w3.org/Graphics/SVG/1.1/DTD/svg11.dtd"><svg width="100%" height="100%" viewBox="0 0 50 50" version="1.1" xmlns="http://www.w3.org/2000/svg" xmlns:xlink="http://www.w3.org/1999/xlink" xml:space="preserve" xmlns:serif="http://www.serif.com/" style="fill-rule:evenodd;clip-rule:evenodd;stroke-linejoin:round;stroke-miterlimit:2;"><g id="Background"><path d="M10.001,32.51c-0.22,-6.198 0.169,-7.516 2.258,-10.201c3.409,-4.381 -0.039,-10.146 3.567,-14.531c5.108,-6.21 14.223,-3.738 16.396,-1.952c5.137,4.224 3.816,10.47 3.893,12.716c0.107,3.096 3.504,4.58 3.898,8.976c0.639,7.131 -0.648,9.488 -1.041,10.208c-2.679,4.906 -3.41,4.725 -4.601,5.568c-0.591,0.418 -0.531,0.429 -1.129,0.88c-3.727,2.805 -13.058,2.581 -16.481,0c-3.146,-2.371 -3.178,-2.327 -3.343,-2.617c-2.457,-4.313 -3.453,-4.08 -3.415,-9.047l3.002,1.007c0.274,1.74 0.114,1.818 1.168,3.24c0.889,1.2 0.639,2.095 3.197,3.95c3.586,2.601 5.162,2.523 9.121,2.408c3.138,-0.091 3.047,-0.501 5.747,-2.088c1.802,-1.059 2.989,-3.247 3.172,-3.584c0.997,-1.837 1.948,-1.712 1.672,-8.92c-0.017,-0.454 -0.074,-1.927 -2.37,-5.156c-1.61,-2.264 -1.949,-1.86 -4.394,-3.613c-0.446,-0.32 -1.493,-1.07 -6.804,-0.868c-2.319,0.088 -2.411,-0.079 -4.269,1.285c-1.63,1.196 -2.593,0.589 -4.65,4.386c-0.537,0.992 -1.297,1.378 -1.531,2.872c-0.258,1.642 -0.08,5.603 -0.058,6.089l-3.002,-1.007l13.489,-16.508c6.801,-0.247 7.076,0.428 8.206,1.046c4.078,2.23 0.744,-6.098 0.552,-6.35c-2.497,-3.273 -4.333,-3.644 -4.811,-3.74c-4.759,-0.96 -6.765,0.865 -7.198,1.258c-3.551,3.231 -3.096,3.586 -3.39,5.338c-0,0.001 -2.006,5.389 1.456,3.494c2.05,-1.122 2.094,-1.073 5.185,-1.047l-13.489,16.508Z" style="fill:#fff;fill-opacity:0.91;"/><path d="M28.007,31.484c-0.392,1.302 -0.2,1.397 -1.139,2.387c-1.611,1.701 -0.581,4.191 -2.497,2.817c-0.165,-0.119 -0.717,-2.266 -1.239,-2.817c-0.252,-0.266 -1.76,-1.858 -0.947,-4.477c0.435,-1.401 3.013,-1.401 3.299,-1.401c2.538,0 2.009,1 2.523,3.491Z" style="fill:#fff;fill-opacity:0.98;"/></g></svg>