<?xml version="1.0" encoding="UTF-8" standalone="no"?><!DOCTYPE svg PUBLIC "-//W3C//DTD SVG 1.1//EN" "http://www.w3.org/Graphics/SVG/1.1/DTD/svg11.dtd"><svg width="100%" height="100%" viewBox="0 0 100 100" version="1.1" xmlns="http://www.w3.org/2000/svg" xmlns:xlink="http://www.w3.org/1999/xlink" xml:space="preserve" xmlns:serif="http://www.serif.com/" style="fill-rule:evenodd;clip-rule:evenodd;stroke-linejoin:round;stroke-miterlimit:2;"><g id="Background"><path d="M80.052,85.01c-39.936,31.514 -88.718,-9.219 -73.23,-51.389c13.063,-35.566 67.046,-42.28 85.457,-2.018c4.213,9.214 5.583,24.737 -0.002,36.792c-1.625,3.509 -4.316,9.27 -12.225,16.615l-61.051,-62.979c-27.729,31.573 1.291,78.832 42.423,68.216c29.045,-7.497 42.815,-47.909 16.107,-71.779c-15.745,-14.072 -42.771,-14.436 -58.529,3.564l61.051,62.979l-13.749,-25.998c0,0 -0.28,5.32 -0.27,-0.511l14.019,26.51l-28.552,-44.978c0.483,-0.002 -10.518,-0.653 -8.104,-0.114c0.633,0.141 0.644,-0.053 8.104,0.114l28.552,44.978Z" style="fill:#1e5b56;fill-opacity:1;"/><path d="M58.071,24.966c6.871,6.879 1.858,14.16 5.312,14.96c0.887,0.205 6.494,-0.184 6.573,6.556c0.252,21.394 -0.048,21.758 -1.231,23.19c-3.239,3.921 -10.046,1.762 -31.222,2.361c-9.874,0.279 -7.051,-7.488 -7.535,-24.531c-0.266,-9.37 7.306,-6.011 7.952,-8.898c0.504,-2.256 -1.872,-9.331 5.311,-14.497c6.828,-4.91 13.876,0.164 14.842,0.859l7.962,33.534c-0.252,-11.302 1.202,-14.7 -4.534,-14.533c-13.528,0.393 -25.16,-0.645 -26.666,0.865c-1.324,1.328 -1.222,21.111 0.001,22.334c0.649,0.649 0.767,0.856 26.668,0.799c5.774,-0.013 4.52,-3.633 4.53,-9.465l-7.962,-33.534l-6.571,15.067c0.483,-0.002 5.5,-0.02 6.017,-0.515c1.596,-1.531 0.791,-15.963 -9.995,-12.942c-6.726,1.884 -6.54,12.804 -4.126,13.343c0.633,0.141 0.644,-0.053 8.104,0.114l6.571,-15.067Z" style="fill:#1e5b56;fill-opacity:1;"/><path d="M52.023,59.441c-0.733,1.942 -0.545,2.807 -2.6,2.324c-1.966,-0.463 -0.372,-1.756 -2.673,-5.417c-3.87,-6.157 7.955,-9.128 7.113,-1.802c-0.144,1.248 -0.297,1.172 -0.993,2.201c-0.653,0.966 -0.46,1.019 -0.847,2.695Z" style="fill:#1f5c57;"/></g></svg>